<svg xmlns="http://www.w3.org/2000/svg" xmlns:xlink="http://www.w3.org/1999/xlink" width="1080" zoomAndPan="magnify" viewBox="0 0 810 809.999993" height="1080" preserveAspectRatio="xMidYMid meet" version="1.0"><defs><clipPath id="5ee3a80eb0"><path d="M 215.929688 339 L 365 339 L 365 579 L 215.929688 579 Z M 215.929688 339 " clip-rule="nonzero"/></clipPath><clipPath id="d9f602cd91"><path d="M 272 204 L 596.179688 204 L 596.179688 621.972656 L 272 621.972656 Z M 272 204 " clip-rule="nonzero"/></clipPath></defs><rect x="-81" width="972" fill="#ffffff" y="-80.999999" height="971.999992" fill-opacity="1"/><rect x="-81" width="972" fill="#3a0a49" y="-80.999999" height="971.999992" fill-opacity="1"/><path fill="#ffffff" d="M 729 405 C 729 410.300781 728.871094 415.601562 728.609375 420.898438 C 728.347656 426.195312 727.960938 431.480469 727.441406 436.757812 C 726.921875 442.035156 726.269531 447.296875 725.492188 452.539062 C 724.714844 457.785156 723.808594 463.007812 722.773438 468.210938 C 721.738281 473.410156 720.578125 478.582031 719.289062 483.726562 C 718 488.867188 716.585938 493.976562 715.046875 499.050781 C 713.507812 504.125 711.847656 509.160156 710.058594 514.152344 C 708.273438 519.144531 706.367188 524.089844 704.335938 528.988281 C 702.308594 533.886719 700.160156 538.734375 697.890625 543.527344 C 695.625 548.320312 693.242188 553.054688 690.742188 557.734375 C 688.242188 562.410156 685.628906 567.019531 682.902344 571.570312 C 680.179688 576.117188 677.34375 580.597656 674.394531 585.003906 C 671.449219 589.414062 668.398438 593.746094 665.238281 598.007812 C 662.082031 602.265625 658.820312 606.445312 655.457031 610.542969 C 652.089844 614.640625 648.628906 618.65625 645.066406 622.585938 C 641.507812 626.515625 637.851562 630.351562 634.101562 634.101562 C 630.351562 637.851562 626.515625 641.507812 622.585938 645.066406 C 618.65625 648.628906 614.640625 652.089844 610.542969 655.457031 C 606.445312 658.820312 602.265625 662.082031 598.007812 665.238281 C 593.746094 668.398438 589.414062 671.449219 585.003906 674.394531 C 580.597656 677.34375 576.117188 680.179688 571.570312 682.902344 C 567.019531 685.628906 562.410156 688.242188 557.734375 690.742188 C 553.054688 693.242188 548.320312 695.625 543.527344 697.890625 C 538.734375 700.160156 533.886719 702.308594 528.988281 704.335938 C 524.089844 706.367188 519.144531 708.273438 514.152344 710.058594 C 509.160156 711.847656 504.125 713.507812 499.050781 715.046875 C 493.976562 716.585938 488.867188 718 483.726562 719.289062 C 478.582031 720.578125 473.410156 721.738281 468.210938 722.773438 C 463.007812 723.808594 457.785156 724.714844 452.539062 725.492188 C 447.296875 726.269531 442.035156 726.921875 436.757812 727.441406 C 431.480469 727.960938 426.195312 728.347656 420.898438 728.609375 C 415.601562 728.871094 410.300781 729 405 729 C 399.699219 729 394.398438 728.871094 389.101562 728.609375 C 383.804688 728.347656 378.519531 727.960938 373.242188 727.441406 C 367.964844 726.921875 362.703125 726.269531 357.460938 725.492188 C 352.214844 724.714844 346.992188 723.808594 341.789062 722.773438 C 336.589844 721.738281 331.417969 720.578125 326.273438 719.289062 C 321.128906 718 316.023438 716.585938 310.949219 715.046875 C 305.875 713.507812 300.839844 711.847656 295.847656 710.058594 C 290.855469 708.273438 285.910156 706.367188 281.011719 704.335938 C 276.113281 702.308594 271.265625 700.160156 266.472656 697.890625 C 261.679688 695.625 256.945312 693.242188 252.265625 690.742188 C 247.589844 688.242188 242.980469 685.628906 238.429688 682.902344 C 233.882812 680.179688 229.402344 677.34375 224.996094 674.394531 C 220.585938 671.449219 216.253906 668.398438 211.992188 665.238281 C 207.734375 662.082031 203.554688 658.820312 199.457031 655.457031 C 195.359375 652.089844 191.34375 648.628906 187.414062 645.066406 C 183.484375 641.507812 179.648438 637.851562 175.898438 634.101562 C 172.148438 630.351562 168.492188 626.515625 164.933594 622.585938 C 161.371094 618.65625 157.910156 614.640625 154.542969 610.542969 C 151.179688 606.445312 147.917969 602.265625 144.761719 598.007812 C 141.601562 593.746094 138.550781 589.414062 135.605469 585.003906 C 132.65625 580.597656 129.820312 576.117188 127.097656 571.570312 C 124.371094 567.019531 121.757812 562.410156 119.257812 557.734375 C 116.757812 553.054688 114.375 548.320312 112.109375 543.527344 C 109.839844 538.734375 107.691406 533.886719 105.664062 528.988281 C 103.632812 524.089844 101.726562 519.144531 99.941406 514.152344 C 98.152344 509.160156 96.492188 504.125 94.953125 499.050781 C 93.410156 493.976562 92 488.867188 90.710938 483.726562 C 89.421875 478.582031 88.261719 473.410156 87.226562 468.210938 C 86.191406 463.007812 85.285156 457.785156 84.507812 452.539062 C 83.730469 447.296875 83.078125 442.035156 82.558594 436.757812 C 82.039062 431.480469 81.652344 426.195312 81.390625 420.898438 C 81.128906 415.601562 81 410.300781 81 405 C 81 399.699219 81.128906 394.398438 81.390625 389.101562 C 81.652344 383.804688 82.039062 378.519531 82.558594 373.242188 C 83.078125 367.964844 83.730469 362.703125 84.507812 357.460938 C 85.285156 352.214844 86.191406 346.992188 87.226562 341.789062 C 88.261719 336.589844 89.421875 331.417969 90.710938 326.273438 C 92 321.128906 93.410156 316.023438 94.953125 310.949219 C 96.492188 305.875 98.152344 300.839844 99.941406 295.847656 C 101.726562 290.855469 103.632812 285.910156 105.664062 281.011719 C 107.691406 276.113281 109.839844 271.265625 112.109375 266.472656 C 114.375 261.679688 116.757812 256.945312 119.257812 252.265625 C 121.757812 247.589844 124.371094 242.980469 127.097656 238.429688 C 129.820312 233.882812 132.65625 229.402344 135.605469 224.996094 C 138.550781 220.585938 141.601562 216.253906 144.761719 211.992188 C 147.917969 207.734375 151.179688 203.554688 154.542969 199.457031 C 157.910156 195.359375 161.371094 191.34375 164.933594 187.414062 C 168.492188 183.484375 172.148438 179.648438 175.898438 175.898438 C 179.648438 172.148438 183.484375 168.492188 187.414062 164.933594 C 191.34375 161.371094 195.359375 157.910156 199.457031 154.542969 C 203.554688 151.179688 207.734375 147.917969 211.992188 144.761719 C 216.253906 141.601562 220.585938 138.550781 224.996094 135.605469 C 229.402344 132.65625 233.882812 129.820312 238.429688 127.097656 C 242.980469 124.371094 247.589844 121.757812 252.265625 119.257812 C 256.945312 116.757812 261.679688 114.375 266.472656 112.109375 C 271.265625 109.839844 276.113281 107.691406 281.011719 105.664062 C 285.910156 103.632812 290.855469 101.726562 295.847656 99.941406 C 300.839844 98.152344 305.875 96.492188 310.949219 94.953125 C 316.023438 93.414062 321.128906 92 326.273438 90.710938 C 331.417969 89.421875 336.589844 88.261719 341.789062 87.226562 C 346.992188 86.191406 352.214844 85.285156 357.460938 84.507812 C 362.703125 83.730469 367.964844 83.078125 373.242188 82.558594 C 378.519531 82.039062 383.804688 81.652344 389.101562 81.390625 C 394.398438 81.128906 399.699219 81 405 81 C 410.300781 81 415.601562 81.128906 420.898438 81.390625 C 426.195312 81.652344 431.480469 82.039062 436.757812 82.558594 C 442.035156 83.078125 447.296875 83.730469 452.539062 84.507812 C 457.785156 85.285156 463.007812 86.191406 468.210938 87.226562 C 473.410156 88.261719 478.582031 89.421875 483.726562 90.710938 C 488.867188 92 493.976562 93.414062 499.050781 94.953125 C 504.125 96.492188 509.160156 98.152344 514.152344 99.941406 C 519.144531 101.726562 524.089844 103.632812 528.988281 105.664062 C 533.886719 107.691406 538.734375 109.839844 543.527344 112.109375 C 548.320312 114.375 553.054688 116.757812 557.734375 119.257812 C 562.410156 121.757812 567.019531 124.371094 571.570312 127.097656 C 576.117188 129.820312 580.597656 132.65625 585.003906 135.605469 C 589.414062 138.550781 593.746094 141.601562 598.007812 144.761719 C 602.265625 147.917969 606.445312 151.179688 610.542969 154.542969 C 614.640625 157.910156 618.65625 161.371094 622.585938 164.933594 C 626.515625 168.492188 630.351562 172.148438 634.101562 175.898438 C 637.851562 179.648438 641.507812 183.484375 645.066406 187.414062 C 648.628906 191.34375 652.089844 195.359375 655.457031 199.457031 C 658.820312 203.554688 662.082031 207.734375 665.238281 211.992188 C 668.398438 216.253906 671.449219 220.585938 674.394531 224.996094 C 677.34375 229.402344 680.179688 233.882812 682.902344 238.429688 C 685.628906 242.980469 688.242188 247.589844 690.742188 252.265625 C 693.242188 256.945312 695.625 261.679688 697.890625 266.472656 C 700.160156 271.265625 702.308594 276.113281 704.335938 281.011719 C 706.367188 285.910156 708.273438 290.855469 710.058594 295.847656 C 711.847656 300.839844 713.507812 305.875 715.046875 310.949219 C 716.585938 316.023438 718 321.128906 719.289062 326.273438 C 720.578125 331.417969 721.738281 336.589844 722.773438 341.789062 C 723.808594 346.992188 724.714844 352.214844 725.492188 357.460938 C 726.269531 362.703125 726.921875 367.964844 727.441406 373.242188 C 727.960938 378.519531 728.347656 383.804688 728.609375 389.101562 C 728.871094 394.398438 729 399.699219 729 405 Z M 729 405 " fill-opacity="1" fill-rule="nonzero"/><path fill="#11cdd4" d="M 406.09375 290.496094 C 406.363281 255.773438 406.09375 221.050781 406.363281 186.332031 L 477.140625 186.332031 C 476.871094 192.472656 477.671875 198.617188 478.742188 204.492188 L 426.660156 204.492188 L 426.660156 486.269531 C 426.925781 498.289062 423.988281 510.308594 418.113281 520.722656 C 409.03125 536.75 391.671875 547.699219 373.242188 549.300781 C 361.492188 550.105469 349.738281 547.96875 339.054688 542.359375 C 331.042969 538.085938 324.367188 531.941406 319.023438 524.464844 C 337.1875 534.613281 360.691406 533.542969 378.316406 522.328125 C 395.144531 511.910156 406.363281 492.144531 406.363281 472.113281 C 406.09375 411.21875 406.09375 350.855469 406.09375 290.496094 Z M 522.8125 270.464844 C 532.695312 276.605469 543.644531 281.414062 555.128906 284.085938 C 561.804688 285.6875 568.75 286.222656 575.695312 286.222656 L 575.695312 302.246094 C 555.394531 297.441406 536.699219 286.222656 522.8125 270.464844 Z M 522.8125 270.464844 " fill-opacity="1" fill-rule="nonzero"/><g clip-path="url(#5ee3a80eb0)"><path fill="#11cdd4" d="M 278.160156 358.871094 C 303.53125 342.84375 334.515625 336.433594 364.160156 340.707031 L 364.160156 357.535156 C 356.148438 357.800781 348.402344 358.871094 340.65625 360.203125 C 321.695312 364.210938 303.53125 372.222656 287.773438 383.707031 C 270.949219 396.261719 258.128906 413.355469 249.046875 432.585938 C 240.5 450.746094 236.226562 470.777344 236.492188 490.8125 C 236.492188 512.980469 242.636719 534.347656 253.054688 553.84375 C 257.859375 562.65625 263.46875 571.472656 270.949219 578.414062 C 255.992188 568 243.4375 553.84375 234.089844 537.816406 C 221.539062 516.71875 215.394531 491.878906 215.929688 467.039062 C 216.730469 444.335938 223.40625 421.902344 235.160156 402.40625 C 245.84375 385.042969 260.800781 369.554688 278.160156 358.871094 Z M 278.160156 358.871094 " fill-opacity="1" fill-rule="nonzero"/></g><path fill="#ffffff" d="M 426.660156 204.492188 L 479.277344 204.492188 C 481.144531 214.640625 484.886719 224.257812 489.425781 233.339844 C 496.902344 247.496094 507.320312 260.046875 520.675781 268.328125 C 521.476562 268.859375 522.277344 269.664062 522.8125 270.464844 C 536.699219 286.222656 555.394531 297.441406 575.960938 301.980469 C 576.230469 320.410156 575.960938 339.105469 575.960938 357.535156 C 541.242188 357.800781 506.519531 346.851562 478.476562 326.550781 C 478.476562 370.621094 478.476562 414.957031 478.742188 459.027344 C 478.742188 464.902344 479.007812 470.777344 478.742188 476.921875 C 477.140625 498.289062 470.460938 519.65625 459.777344 538.351562 C 450.699219 554.644531 437.878906 569.066406 422.921875 580.019531 C 403.691406 594.441406 379.652344 602.453125 355.613281 602.988281 C 343.328125 603.253906 331.042969 602.71875 319.023438 600.050781 C 302.199219 596.308594 286.171875 589.367188 272.015625 579.484375 L 271.214844 578.683594 C 264.269531 571.738281 258.394531 562.925781 253.320312 554.109375 C 242.902344 535.148438 236.761719 513.246094 236.761719 491.078125 C 236.492188 471.046875 240.765625 450.746094 249.3125 432.851562 C 258.128906 413.890625 271.480469 396.527344 288.042969 383.976562 C 303.800781 372.222656 321.695312 364.210938 340.925781 360.472656 C 348.671875 358.871094 356.683594 358.066406 364.429688 357.800781 C 364.695312 364.746094 364.429688 371.957031 364.695312 378.632812 L 364.695312 414.421875 C 355.882812 411.484375 346 411.484375 336.652344 413.621094 C 325.699219 416.027344 315.285156 421.101562 306.472656 428.3125 C 301.128906 432.851562 296.589844 438.460938 293.652344 444.605469 C 288.042969 455.019531 286.171875 467.308594 287.507812 479.058594 C 288.84375 490.542969 293.652344 501.492188 301.128906 510.039062 C 305.9375 516.183594 312.613281 520.722656 319.023438 524.996094 C 324.367188 532.476562 331.042969 538.621094 339.054688 542.894531 C 349.472656 548.5 361.492188 550.90625 373.242188 549.835938 C 391.671875 548.5 408.765625 537.285156 418.113281 521.257812 C 423.988281 510.84375 426.925781 498.824219 426.660156 486.804688 C 426.925781 392.253906 426.660156 298.242188 426.660156 204.492188 Z M 426.660156 204.492188 " fill-opacity="1" fill-rule="nonzero"/><g clip-path="url(#d9f602cd91)"><path fill="#3a0a49" d="M 479.007812 204.492188 C 485.152344 204.761719 491.296875 204.492188 497.707031 204.492188 C 497.707031 225.058594 504.117188 245.625 516.132812 262.449219 C 517.738281 264.585938 519.070312 266.457031 520.675781 268.328125 C 507.054688 260.046875 496.371094 247.496094 489.425781 233.339844 C 484.886719 224.523438 481.144531 214.640625 479.007812 204.492188 Z M 575.695312 301.980469 C 582.371094 303.582031 589.316406 304.117188 596.261719 304.117188 L 596.261719 375.695312 C 561.273438 375.964844 526.285156 364.210938 497.707031 343.644531 L 497.707031 485.46875 C 497.972656 496.152344 497.171875 506.835938 494.765625 517.519531 C 488.089844 549.570312 468.859375 578.414062 442.683594 597.109375 C 428.796875 607.261719 412.769531 614.203125 395.945312 617.945312 C 375.644531 622.484375 354.546875 622.21875 334.515625 617.144531 C 310.746094 611 288.84375 597.914062 272.285156 579.75 C 286.4375 589.898438 302.464844 596.578125 319.289062 600.316406 C 331.308594 602.988281 343.597656 603.789062 355.882812 603.253906 C 379.917969 602.71875 403.691406 594.707031 423.1875 580.285156 C 438.144531 569.335938 450.429688 554.910156 460.046875 538.621094 C 470.730469 519.921875 477.671875 498.824219 479.007812 477.1875 C 479.277344 471.3125 479.277344 465.4375 479.007812 459.292969 C 478.742188 414.957031 478.742188 370.886719 478.742188 326.820312 C 507.054688 347.117188 541.773438 358.066406 576.230469 357.800781 C 575.695312 339.105469 575.960938 320.410156 575.695312 301.980469 Z M 575.695312 301.980469 " fill-opacity="1" fill-rule="nonzero"/></g><path fill="#3a0a49" d="M 364.429688 357.265625 C 371.105469 357.265625 378.316406 357.535156 384.996094 358.601562 L 384.996094 432.050781 C 375.113281 428.578125 364.160156 428.3125 354.011719 430.714844 C 334.78125 434.988281 318.488281 449.679688 311.546875 468.375 C 304.867188 486.804688 307.539062 508.171875 319.289062 523.929688 C 312.613281 519.921875 306.472656 515.117188 301.394531 508.972656 C 293.917969 500.425781 289.109375 489.207031 287.773438 477.992188 C 286.4375 466.238281 288.308594 453.953125 293.917969 443.535156 C 296.855469 437.394531 301.664062 431.785156 306.738281 427.242188 C 315.285156 419.765625 325.96875 415.226562 336.917969 412.554688 C 346 410.417969 355.882812 410.417969 364.960938 413.355469 L 364.960938 377.566406 C 364.429688 371.421875 364.960938 364.476562 364.429688 357.265625 Z M 364.429688 357.265625 " fill-opacity="1" fill-rule="nonzero"/></svg>